<?xml version="1.0" standalone="no"?>
<!DOCTYPE svg PUBLIC "-//W3C//DTD SVG 20010904//EN"
 "http://www.w3.org/TR/2001/REC-SVG-20010904/DTD/svg10.dtd">
<svg version="1.0" xmlns="http://www.w3.org/2000/svg"
 width="680.000000pt" height="646.000000pt" viewBox="0 0 680.000000 646.000000"
 preserveAspectRatio="xMidYMid meet">

<g transform="translate(0.000000,646.000000) scale(0.100000,-0.100000)"
fill="#000000" stroke="none">
<path d="M3442 5989 c-90 -13 -163 -44 -215 -89 -25 -22 -49 -40 -54 -40 -5 0
-25 11 -44 25 -19 14 -65 35 -103 47 -58 18 -83 20 -165 14 -134 -9 -294 -41
-414 -82 -108 -37 -362 -161 -512 -249 -315 -185 -576 -461 -805 -852 -146
-249 -176 -296 -262 -411 -195 -258 -255 -373 -279 -532 -24 -166 2 -298 110
-552 39 -92 71 -177 71 -189 0 -12 -18 -48 -40 -81 -80 -120 -110 -293 -91
-534 24 -308 98 -574 236 -843 85 -167 150 -258 259 -366 168 -166 301 -228
639 -299 350 -74 443 -118 636 -300 196 -185 334 -250 556 -263 161 -9 347 27
479 94 57 29 137 107 155 152 20 48 45 48 109 3 175 -122 365 -179 565 -169
225 10 433 106 743 344 172 131 258 215 388 377 68 86 158 183 227 246 353
323 452 463 521 734 27 106 29 274 4 366 -20 79 -61 167 -110 239 -20 29 -36
57 -36 61 0 5 24 14 54 20 256 53 309 443 121 891 -20 47 -81 169 -137 270
-123 226 -176 337 -239 501 -103 272 -236 496 -378 639 -118 118 -227 178
-447 245 -168 50 -326 125 -529 248 -381 231 -693 350 -903 345 -26 -1 -75 -6
-110 -10z m261 -63 c155 -30 472 -175 693 -319 215 -138 358 -206 594 -281
153 -50 226 -86 315 -157 162 -131 299 -338 394 -598 62 -167 150 -359 277
-602 171 -325 222 -476 231 -685 5 -101 2 -132 -13 -180 -23 -75 -82 -137
-144 -154 -50 -14 -240 -6 -271 10 -16 9 -17 24 -12 208 9 301 -21 532 -107
820 -185 617 -632 1155 -1210 1456 -337 175 -650 258 -1063 282 -101 6 -122
10 -142 28 -34 31 -39 58 -14 89 28 36 97 76 150 86 71 14 241 12 322 -3z
m-653 -90 c51 -27 80 -56 80 -82 0 -28 -5 -30 -173 -54 -401 -59 -767 -205
-1092 -438 -607 -435 -991 -1140 -1022 -1877 -3 -77 -9 -147 -14 -155 -6 -11
-19 9 -47 70 -114 246 -138 457 -72 632 28 75 102 196 198 326 93 125 190 274
252 387 199 362 425 627 699 819 116 81 396 234 532 290 167 69 360 106 524
102 73 -1 109 -7 135 -20z m610 -260 c153 -26 241 -48 246 -60 2 -6 -20 -74
-50 -151 -52 -136 -53 -141 -36 -165 41 -59 70 -204 59 -285 -23 -157 -28
-258 -13 -279 8 -11 14 -30 14 -41 0 -15 19 -29 85 -59 351 -160 637 -484 760
-859 51 -156 67 -253 72 -432 2 -88 7 -231 10 -317 5 -151 -7 -343 -27 -406
-28 -90 -72 -187 -97 -215 -16 -18 -49 -69 -72 -113 -81 -148 -121 -196 -348
-426 l-166 -166 117 -215 c65 -119 120 -225 123 -236 11 -43 -31 -68 -225
-137 -188 -66 -400 -122 -510 -133 -137 -14 -364 1 -739 50 -139 18 -135 8
-88 192 22 86 37 158 34 162 -3 3 -35 -2 -70 -11 -67 -18 -116 -17 -438 6 -96
7 -164 7 -205 0 -137 -22 -198 -8 -272 65 -39 38 -58 67 -77 120 -31 82 -122
455 -132 537 -8 73 9 194 46 321 22 79 30 126 32 208 l2 107 -180 -63 c-99
-35 -225 -80 -280 -100 -55 -20 -108 -39 -117 -42 -11 -3 -22 5 -33 26 -24 47
-81 264 -107 408 -42 239 -26 789 26 841 11 12 36 11 152 -2 77 -8 195 -20
264 -26 69 -6 168 -20 220 -31 52 -11 124 -23 160 -27 76 -8 73 4 47 -163 -18
-111 -23 -374 -9 -383 5 -3 18 12 29 32 17 30 22 62 26 177 12 285 96 534 261
775 76 112 262 293 384 374 89 60 102 72 102 96 0 16 4 40 10 55 7 18 5 42 -5
82 -8 32 -15 86 -15 122 0 75 -14 103 -208 404 -98 151 -113 180 -101 192 20
18 226 98 334 129 111 31 218 52 355 71 139 19 517 13 650 -9z m1881 -1603 c6
-16 26 -90 45 -167 60 -245 82 -491 65 -713 -11 -143 -38 -317 -53 -345 -12
-24 -28 -23 -156 8 -59 14 -159 36 -222 49 -63 13 -173 41 -245 63 l-130 38 2
50 c18 432 16 465 -34 659 -40 153 -42 146 52 175 44 13 202 66 350 116 149
51 280 93 293 93 16 1 26 -7 33 -26z m-4687 -1005 c3 -13 12 -72 21 -133 19
-121 51 -250 90 -364 14 -41 25 -83 25 -94 0 -22 100 -218 195 -382 296 -513
782 -902 1360 -1088 172 -56 520 -101 793 -102 129 -1 217 -6 223 -12 15 -15
-25 -112 -66 -161 -73 -85 -278 -153 -465 -153 -226 -1 -358 55 -550 231 -226
206 -284 233 -720 331 -215 48 -282 71 -393 136 -99 59 -233 188 -304 294
-127 192 -257 508 -303 738 -46 229 -51 502 -12 628 37 118 95 189 106 131z
m4976 -118 c52 -14 107 -65 162 -149 71 -108 93 -189 91 -331 -1 -143 -24
-236 -92 -375 -66 -134 -151 -236 -334 -402 -185 -168 -199 -182 -341 -359
-120 -148 -195 -220 -366 -351 -200 -153 -334 -231 -493 -285 -84 -29 -104
-32 -217 -32 -153 -1 -211 13 -367 89 -113 55 -210 130 -201 156 5 15 62 33
187 59 444 94 873 331 1206 665 176 177 315 370 430 599 97 191 149 329 201
534 24 95 46 177 49 182 8 13 41 13 85 0z"/>
<path d="M3160 5452 c-108 -36 -174 -85 -229 -170 -24 -38 -40 -51 -80 -65
-59 -20 -103 -79 -120 -157 -6 -27 -20 -66 -31 -87 -11 -21 -20 -43 -20 -49 0
-22 115 46 191 112 92 82 179 140 227 154 48 13 115 13 107 0 -3 -5 -18 -10
-33 -10 -76 0 -286 -143 -328 -222 -16 -31 -19 -68 -4 -68 5 0 19 19 31 43 41
81 75 104 187 123 40 7 111 30 158 50 72 31 93 36 137 32 125 -12 255 -95 304
-197 27 -55 28 -59 26 -211 -2 -85 0 -167 3 -182 6 -30 24 -39 24 -12 0 22 55
74 78 74 28 0 30 -14 20 -105 -14 -137 -54 -225 -101 -225 -17 0 -18 5 -12 43
13 74 -6 32 -26 -60 -27 -122 -58 -182 -132 -249 -104 -94 -133 -107 -256
-112 l-107 -4 -99 48 c-62 30 -117 65 -146 94 -41 39 -50 57 -74 137 -20 65
-33 93 -46 96 -9 3 -30 28 -44 57 -22 44 -25 57 -16 77 16 36 14 64 -3 34
l-13 -24 -12 22 c-20 37 -25 115 -9 129 12 10 18 8 33 -8 15 -17 16 -20 3 -20
-9 0 -21 -7 -28 -14 -10 -13 -7 -15 16 -13 23 2 32 -5 48 -34 18 -33 19 -41 6
-78 -12 -37 -11 -43 5 -61 26 -29 40 -25 21 5 -14 22 -15 31 -5 58 9 26 8 39
-4 69 -14 34 -14 36 4 41 26 7 25 48 -7 177 -25 103 -28 188 -9 233 7 18 5 17
-33 -2 -23 -12 -53 -21 -67 -21 l-26 0 7 -92 c3 -51 12 -120 20 -152 10 -41
11 -63 4 -70 -5 -5 -10 -35 -10 -66 0 -69 57 -212 100 -253 16 -15 34 -46 40
-70 20 -78 31 -106 54 -140 17 -25 25 -55 30 -113 3 -43 9 -104 12 -135 l6
-56 -31 0 c-16 0 -48 -12 -71 -27 -23 -15 -78 -38 -124 -51 -105 -30 -213 -73
-319 -126 -88 -44 -177 -105 -177 -120 0 -6 21 -40 46 -77 79 -115 146 -274
129 -302 -5 -9 -105 150 -105 166 0 10 -93 154 -106 164 -35 30 -236 -222
-324 -405 -75 -159 -113 -324 -109 -477 1 -40 -3 -86 -10 -101 -6 -16 -23 -74
-37 -130 -43 -164 -39 -263 20 -511 74 -309 107 -380 194 -419 40 -17 57 -19
131 -12 108 9 255 7 391 -5 295 -27 322 -19 678 198 46 28 103 58 127 67 l43
17 76 -37 c71 -36 80 -38 143 -32 38 3 117 22 177 41 105 33 110 34 150 19 56
-20 144 -21 181 -1 49 26 397 376 463 465 33 45 80 119 104 164 23 45 57 98
74 118 41 48 90 193 103 306 32 269 -13 625 -92 733 -40 53 -107 122 -120 122
-31 0 -116 -52 -158 -96 -25 -27 -78 -94 -116 -149 -75 -106 -118 -153 -130
-141 -19 19 156 286 229 350 29 26 74 54 101 64 26 9 47 22 47 29 0 26 -118
114 -230 172 -145 75 -177 87 -310 112 -77 15 -112 27 -130 44 -36 33 -64 45
-103 45 l-35 0 -12 103 c-6 56 -15 111 -19 122 -4 11 -3 39 1 62 8 39 13 44
49 53 49 13 70 52 92 165 27 138 27 164 7 183 -17 16 -18 26 -9 117 5 55 13
124 19 154 17 94 13 164 -12 201 -37 54 -51 51 -43 -9 7 -53 -1 -131 -14 -131
-5 0 -11 39 -14 88 -4 48 -11 104 -17 125 -15 51 -56 95 -105 111 -31 11 -41
21 -47 44 -10 39 -56 77 -138 115 -83 40 -196 47 -280 19z m158 -64 c49 -22
82 -49 82 -70 0 -18 -3 -17 -35 10 -79 70 -220 66 -305 -8 l-35 -30 30 7 c52
13 148 7 183 -11 43 -22 35 -31 -15 -17 -53 15 -111 14 -171 -4 -55 -17 -88
-50 -117 -118 -8 -20 -19 -36 -23 -35 -4 2 -30 -22 -59 -52 -28 -30 -55 -52
-58 -48 -4 3 11 30 33 60 22 29 50 69 63 90 83 127 124 179 156 199 72 44 200
57 271 27z m142 -133 c0 -2 -35 -20 -77 -40 -42 -20 -86 -43 -96 -53 -18 -16
-19 -16 -16 2 5 26 47 55 110 77 54 18 79 23 79 14z m-580 -50 c0 -3 -17 -22
-39 -43 -25 -24 -46 -59 -61 -100 -29 -79 -45 -92 -37 -29 9 66 41 122 84 152
37 24 53 31 53 20z m779 -47 c33 -33 66 -108 59 -130 -3 -7 -12 3 -21 24 -8
20 -34 57 -56 81 -36 39 -43 57 -21 57 4 0 22 -14 39 -32z m101 -432 c-6 -31
-15 -56 -19 -56 -8 0 -3 137 6 160 4 10 9 5 15 -16 7 -21 6 -49 -2 -88z
m-1021 15 c6 -40 9 -76 7 -79 -10 -10 -29 54 -34 113 -6 83 12 60 27 -34z
m940 -748 c8 -57 22 -113 38 -145 52 -108 27 -218 -70 -304 -118 -103 -247
-150 -395 -141 -71 4 -90 10 -139 38 -84 50 -150 120 -167 177 -9 31 -10 51
-4 59 6 8 6 61 -1 151 -6 76 -11 145 -11 154 0 12 20 6 88 -28 115 -58 197
-78 286 -70 84 8 138 31 214 91 61 47 87 77 117 135 l18 35 7 -30 c4 -16 13
-72 19 -122z m518 -305 c64 -14 180 -69 173 -83 -3 -5 -9 -8 -15 -6 -85 30
-191 54 -277 64 -72 7 -108 15 -108 23 0 7 10 15 23 17 30 7 141 -1 204 -15z
m16 -124 c27 -9 47 -22 47 -31 0 -9 -7 -13 -17 -10 -10 3 -56 11 -103 17 -87
13 -115 24 -103 42 8 14 115 3 176 -18z m-1548 -14 c4 -6 -15 -20 -42 -32 -26
-11 -94 -49 -149 -84 -121 -76 -134 -82 -134 -61 0 30 153 135 242 167 63 22
75 23 83 10z m1086 -57 c-33 -61 -167 -152 -270 -183 -80 -25 -258 -27 -346
-5 -73 19 -153 63 -179 98 -30 40 -13 43 39 7 74 -51 146 -72 270 -77 173 -8
266 20 410 126 74 54 92 62 76 34z m-1091 -46 c0 -7 -49 -43 -109 -79 -129
-80 -141 -86 -141 -64 0 21 92 93 165 127 66 32 85 35 85 16z m0 -129 c0 -13
-208 -133 -216 -125 -12 11 13 40 62 72 88 58 154 81 154 53z m1241 -310 c2
-24 -2 -73 -8 -93 -4 -14 7 -8 38 21 48 46 105 79 113 66 3 -5 -13 -26 -35
-48 -73 -70 -184 -243 -167 -259 3 -4 34 2 69 12 48 13 100 18 204 17 121 0
153 -3 239 -27 123 -34 181 -65 264 -142 l66 -61 -17 -52 c-10 -28 -44 -93
-77 -144 -33 -51 -60 -96 -60 -99 0 -4 -36 -54 -80 -111 -75 -96 -424 -459
-462 -479 -23 -13 -99 -11 -139 3 -19 6 -59 27 -89 45 -53 32 -100 43 -100 24
0 -5 18 -16 40 -25 22 -9 40 -20 40 -25 0 -11 -75 -35 -187 -58 -100 -21 -140
-13 -240 48 -239 147 -649 313 -799 324 -90 7 -176 23 -188 35 -6 6 -5 14 1
22 6 7 16 36 22 63 17 70 57 139 108 185 l43 40 120 0 c137 0 220 -15 370 -65
114 -38 160 -42 234 -20 53 16 186 40 281 50 116 12 298 46 326 60 32 17 52
42 26 32 -19 -7 -22 4 -6 20 7 7 9 19 6 27 -5 13 -21 10 -104 -20 -54 -19
-109 -46 -123 -59 -19 -17 -42 -25 -92 -30 -38 -3 -68 -3 -68 2 0 19 134 175
173 202 52 35 91 47 231 66 92 13 112 14 123 2 24 -24 -16 -45 -131 -67 -145
-28 -201 -51 -264 -106 -73 -64 -58 -67 19 -5 34 28 83 57 109 66 52 17 201
45 243 45 24 0 26 -2 17 -20 -6 -10 -33 -29 -60 -42 -52 -24 -70 -45 -23 -27
75 28 109 64 98 100 -3 9 -1 20 5 24 18 11 11 45 -12 54 -16 6 -22 16 -23 37
l0 29 -95 -2 -96 -2 -2 27 c-1 16 15 62 38 107 33 66 40 90 40 140 0 33 3 70
6 83 7 23 33 31 35 10z m-1436 -117 c3 -5 -9 -45 -26 -88 -17 -43 -37 -107
-45 -143 -16 -78 -18 -232 -3 -332 l11 -73 -41 -84 c-23 -47 -41 -91 -41 -99
0 -7 -15 3 -34 22 -32 34 -56 46 -56 28 0 -5 9 -17 21 -28 43 -39 67 -109 27
-80 -31 22 -120 66 -135 66 -29 0 -9 -22 45 -50 31 -17 75 -44 98 -61 34 -25
58 -33 136 -44 74 -10 112 -22 176 -54 45 -23 84 -41 87 -41 4 0 3 9 0 21 -6
17 -4 20 12 15 10 -3 32 -8 48 -12 69 -16 495 -216 495 -232 0 -5 -24 -18 -53
-30 -29 -12 -104 -54 -167 -93 -244 -152 -322 -176 -512 -159 -62 5 -168 10
-235 10 -68 0 -123 3 -123 8 0 4 45 31 100 60 55 29 100 55 100 57 0 7 -74
-22 -145 -58 -140 -70 -245 -85 -306 -44 -52 35 -84 113 -140 337 -82 334 -84
393 -23 626 38 150 45 161 111 192 50 23 71 27 148 26 110 0 169 -25 260 -109
33 -30 62 -55 65 -55 3 0 5 51 6 113 1 120 16 197 60 295 41 93 63 118 79 93z
m1886 -54 c89 -29 269 -136 269 -160 0 -13 -38 2 -136 54 -49 26 -117 55 -150
64 -97 25 -247 39 -304 28 -39 -8 -50 -7 -50 3 0 25 54 34 190 30 82 -3 153
-10 181 -19z m-2243 -151 c80 -22 177 -84 158 -103 -3 -3 -42 11 -86 31 -64
30 -96 39 -158 43 -68 5 -85 2 -145 -22 -38 -15 -70 -25 -73 -23 -9 10 46 50
92 68 58 23 139 25 212 6z m1857 -66 c11 -18 -45 -41 -146 -59 -57 -9 -114
-23 -126 -29 -36 -20 -38 -14 -7 19 35 37 76 60 124 70 53 10 148 10 155 -1z
m-793 -147 c10 -9 18 -26 18 -39 0 -26 -20 -74 -30 -74 -15 0 -19 14 -10 31 8
14 6 18 -13 21 -28 4 -36 44 -10 51 16 4 15 5 -2 6 -25 1 -45 -17 -45 -41 0
-10 -4 -18 -10 -18 -17 0 -11 58 8 69 26 16 73 13 94 -6z m658 -101 c0 -24
-52 -53 -110 -63 -34 -5 -65 -8 -67 -5 -6 6 49 34 111 57 60 21 66 22 66 11z
m-390 -86 c0 -2 -7 -7 -16 -10 -8 -3 -12 -2 -9 4 6 10 25 14 25 6z"/>
<path d="M3271 3650 c0 -19 4 -42 9 -50 8 -12 10 -10 9 10 -1 14 -5 36 -9 50
-7 23 -8 22 -9 -10z"/>
<path d="M2482 2145 c-21 -45 -15 -91 14 -114 39 -30 52 -26 21 7 -29 30 -36
77 -17 113 6 10 7 19 2 19 -5 0 -14 -11 -20 -25z"/>
<path d="M2760 1971 c0 -18 65 -56 185 -107 66 -29 122 -50 124 -48 12 11 -37
42 -157 100 -139 66 -152 71 -152 55z"/>
<path d="M4044 1894 c-47 -58 -96 -80 -196 -89 -43 -4 -78 -11 -78 -16 0 -5
38 -9 83 -9 68 0 92 4 128 23 38 20 119 108 119 130 0 18 -20 3 -56 -39z"/>
<path d="M2432 1806 c-52 -13 -70 -22 -61 -30 2 -3 49 2 104 11 55 8 133 13
173 10 70 -4 95 4 50 17 -39 10 -211 5 -266 -8z"/>
<path d="M2975 1558 c-72 -46 -195 -97 -262 -109 -57 -11 -119 -36 -110 -45 5
-5 92 15 197 46 68 21 231 108 238 128 6 19 -9 14 -63 -20z"/>
<path d="M3380 4802 c-44 -17 -58 -37 -46 -67 4 -12 15 -11 62 5 69 24 117 25
174 5 24 -8 45 -13 48 -10 3 3 -7 19 -23 35 -49 51 -133 63 -215 32z"/>
<path d="M2969 4787 c-47 -18 -96 -53 -110 -79 -17 -32 -2 -33 42 -3 50 36
130 44 203 21 54 -17 66 -14 66 14 0 43 -130 73 -201 47z"/>
<path d="M2993 4694 c-18 -9 -33 -20 -33 -25 0 -13 7 -11 34 6 13 9 39 16 59
17 20 1 34 5 31 10 -8 13 -56 9 -91 -8z"/>
<path d="M3390 4700 c-10 -6 -2 -7 25 -3 49 7 58 13 19 13 -16 0 -36 -5 -44
-10z"/>
<path d="M3383 4646 c-24 -21 -25 -24 -8 -23 14 1 21 -5 23 -20 3 -17 12 -23
53 -28 51 -7 74 -1 50 14 -22 14 -9 46 17 43 33 -5 27 6 -14 23 -52 21 -89 19
-121 -9z m77 -16 c0 -12 -28 -25 -36 -17 -9 9 6 27 22 27 8 0 14 -5 14 -10z"/>
<path d="M2973 4637 c-56 -23 -74 -43 -22 -25 35 12 39 9 43 -26 4 -36 7 -38
55 -30 30 5 41 11 41 24 0 28 11 51 21 44 5 -3 9 -1 9 4 0 11 -54 32 -79 31
-9 0 -40 -10 -68 -22z m98 -30 c-5 -5 -17 -7 -26 -3 -14 5 -15 9 -5 21 10 12
16 13 27 4 9 -8 10 -16 4 -22z"/>
<path d="M3752 4568 c-7 -7 -12 -21 -12 -33 0 -11 -7 -31 -16 -43 -17 -24 -12
-92 6 -92 5 0 4 14 -2 30 -8 25 -7 34 6 49 9 10 16 25 16 35 0 22 18 56 30 56
5 0 11 -12 13 -27 4 -26 4 -26 6 5 1 25 -3 32 -17 32 -10 0 -23 -5 -30 -12z"/>
<path d="M3222 4520 c0 -19 2 -27 5 -17 2 9 2 25 0 35 -3 9 -5 1 -5 -18z"/>
<path d="M3764 4421 c1 -16 4 -27 9 -24 10 6 9 41 -2 47 -4 3 -8 -8 -7 -23z"/>
<path d="M3352 4390 c0 -14 2 -19 5 -12 2 6 2 18 0 25 -3 6 -5 1 -5 -13z"/>
<path d="M3175 4370 c-3 -5 -1 -10 4 -10 6 0 11 5 11 10 0 6 -2 10 -4 10 -3 0
-8 -4 -11 -10z"/>
<path d="M3270 4376 c0 -2 7 -7 16 -10 8 -3 12 -2 9 4 -6 10 -25 14 -25 6z"/>
<path d="M3157 4245 c-38 -13 -58 -25 -42 -25 20 0 85 24 85 32 0 10 4 10 -43
-7z"/>
<path d="M3220 4250 c0 -5 11 -10 25 -10 14 0 25 5 25 10 0 6 -11 10 -25 10
-14 0 -25 -4 -25 -10z"/>
<path d="M3330 4246 c0 -2 7 -6 15 -10 8 -3 15 -1 15 4 0 6 -7 10 -15 10 -8 0
-15 -2 -15 -4z"/>
<path d="M3436 4238 c-9 -5 -25 -8 -35 -5 -9 2 -22 -2 -28 -9 -26 -27 -271
-30 -297 -4 -13 13 -26 13 -26 1 0 -30 227 -41 325 -15 33 8 68 16 78 17 9 1
17 5 17 9 0 13 -15 16 -34 6z"/>
<path d="M3345 4155 c-22 -14 -33 -25 -25 -25 8 0 29 11 45 25 38 31 31 31
-20 0z"/>
<path d="M3110 4166 c0 -10 66 -36 87 -36 10 1 2 7 -17 14 -19 7 -43 17 -52
21 -10 4 -18 4 -18 1z"/>
<path d="M3235 4019 c-10 -16 -4 -16 45 -3 l45 12 -42 1 c-23 1 -45 -4 -48
-10z"/>
</g>
</svg>
